PathFileType	4	(X/Y/Z)	/Users/niels/Desktop/University/Third Semester/Perception and Action/Exam/Gymnastics Motion Tracking/Code for Gym Tracking/Analyzed Data/Webcam_Backflip/id1_1_trajectory_Sports2D/id1_1_trajectory_Sports2D_px_person00.trc
DataRate	CameraRate	NumFrames	NumMarkers	Units	OrigDataRate	OrigDataStartFrame	OrigNumFrames
29.702970297029704	29.702970297029704	11	22	m	29.702970297029704	63	101
Frame#	Time	Hip			RHip			RKnee			RAnkle			RBigToe			RSmallToe			RHeel			LHip			LKnee			LAnkle			LBigToe			LSmallToe			LHeel			Neck			Head			Nose			RShoulder			RElbow			RWrist			LShoulder			LElbow			LWrist		
		X1	Y1	Z1	X2	Y2	Z2	X3	Y3	Z3	X4	Y4	Z4	X5	Y5	Z5	X6	Y6	Z6	X7	Y7	Z7	X8	Y8	Z8	X9	Y9	Z9	X10	Y10	Z10	X11	Y11	Z11	X12	Y12	Z12	X13	Y13	Z13	X14	Y14	Z14	X15	Y15	Z15	X16	Y16	Z16	X17	Y17	Z17	X18	Y18	Z18	X19	Y19	Z19	X20	Y20	Z20	X21	Y21	Z21	X22	Y22	Z22
63	2.121	1.099563541036258	-0.5065562276940118	0.0	1.0500211927861816	-0.5131991778306619	0.0	1.0569826227659889	-0.6948253541654492	0.0	1.0752005661214108	-0.8816188049727193	0.0	1.0739494044857991	-0.9391949932922431	0.0	1.0486433149886432	-0.9331405126939611	0.0	1.0906497548295426	-0.9031404977755945	0.0	1.1460176880949449	-0.5052800306706814	0.0	1.1839666166236007	-0.6707514768208261	0.0	1.1409667825265406	-0.7668438336981477	0.0	1.1590449965138385	-0.8379712360042666	0.0	1.1763343101710508	-0.8241299474969002	0.0	1.124382247616452	-0.770708306117126	0.0	1.0757098956883127	-0.22896651930226933	0.0	1.061906911273773	-0.10520967033685677	0.0	1.0672408281646864	-0.1722853998442605	0.0	0.9979578313337496	-0.280946070180941	0.0	0.9390766606513471	-0.3841611421864342	0.0	0.8788688838134511	-0.4319920826339354	0.0	1.1627200730843323	-0.2654989350061972	0.0	1.2165003316323881	-0.36794769836941316	0.0	1.2128458014505061	-0.4142049566086812	0.0
64	2.1546666666666665	1.098757257553819	-0.5175959685851416	0.0	1.0483534237187115	-0.5243458113137313	0.0	1.0531413466917998	-0.7090218294816446	0.0	1.071398543228826	-0.902781040996223	0.0	1.0672549193589684	-0.9631249868098273	0.0	1.042307303482204	-0.956486413910945	0.0	1.0879058313198948	-0.9252916719062205	0.0	1.1461582074323413	-0.5157924471159276	0.0	1.1829920466607193	-0.6807640915317664	0.0	1.142633703030571	-0.8078463214324804	0.0	1.1603461956024668	-0.8763952471023628	0.0	1.1795661519967038	-0.864453871539786	0.0	1.1251425746402406	-0.817600783198724	0.0	1.0733596825317187	-0.2345944964415032	0.0	1.0589522997184497	-0.10894661122947474	0.0	1.0642137582791886	-0.1771227421741766	0.0	0.9951105082991865	-0.2889604346652679	0.0	0.9391853877519969	-0.3970168871884965	0.0	0.8801106393208518	-0.4588876723983677	0.0	1.1624444741411653	-0.2721745934875466	0.0	1.2109601069398375	-0.38105819926342455	0.0	1.2089969063220947	-0.44331975406611845	0.0
65	2.188333333333333	1.0973988185180785	-0.5323912770935489	0.0	1.0461681746586076	-0.5389349657512297	0.0	1.0489484898681385	-0.7255364786766411	0.0	1.0705055385988742	-0.9213054395588872	0.0	1.0631577034001416	-0.9827266889323004	0.0	1.0388139705119503	-0.975666879664476	0.0	1.0879385160027792	-0.9441031210081221	0.0	1.1456670871814785	-0.5301613287327993	0.0	1.1803000247003586	-0.6959831206597729	0.0	1.145510677847688	-0.8551450947190308	0.0	1.1625189780694207	-0.9204884709007974	0.0	1.183740379956882	-0.9101968818613708	0.0	1.1279681179863303	-0.8707102477761639	0.0	1.0709836241521238	-0.24390031663488881	0.0	1.0561989881279514	-0.11660624416568431	0.0	1.0614958010415576	-0.18603208999268053	0.0	0.9925265564575562	-0.30104772876433084	0.0	0.9407952103006413	-0.4146003520697594	0.0	0.8834205391297273	-0.4901345418513692	0.0	1.161778105464579	-0.2827993881801674	0.0	1.2051920927612754	-0.39877176569683487	0.0	1.2068512828377993	-0.4768663971486529	0.0
66	2.222	1.0956868079489632	-0.5492229466219042	0.0	1.0437325728921771	-0.5553099503779508	0.0	1.0447256665152453	-0.74340660074908	0.0	1.0719998478267474	-0.9351811514449252	0.0	1.0613895854407358	-0.9966014358082138	0.0	1.037812657120065	-0.9891053190600751	0.0	1.0901703571569643	-0.9572562908416733	0.0	1.1447708375224053	-0.5466296517987236	0.0	1.1760387216506694	-0.7153420072829126	0.0	1.1488164926176612	-0.9036023678216935	0.0	1.164122079273534	-0.9648194046566022	0.0	1.187109151163801	-0.9560560844666043	0.0	1.132303280194058	-0.9241144301834465	0.0	1.06890341202881	-0.25500560310540565	0.0	1.0539101711981742	-0.12632009998478932	0.0	1.0593920941795292	-0.19708051360232717	0.0	0.9904101172451456	-0.31527008554146735	0.0	0.943819369772731	-0.4347075817110406	0.0	0.8886717486330115	-0.52277261173333	0.0	1.1611097065040064	-0.2957301187894605	0.0	1.1998727326168124	-0.41878400062659493	0.0	1.2064830323716274	-0.5120553439795568	0.0
67	2.2556666666666665	1.093946390958738	-0.5661939606753983	0.0	1.041446568010656	-0.571749835084484	0.0	1.040938138523396	-0.7620196859197895	0.0	1.0748278873282242	-0.9435082525691386	0.0	1.061332259777883	-1.0051264866649197	0.0	1.0385428064851703	-0.9969737240375595	0.0	1.093527271786301	-0.9634562756967535	0.0	1.1438141270918336	-0.5632165241135597	0.0	1.170862571802151	-0.7367194279342502	0.0	1.1515710738112659	-0.9485276928043008	0.0	1.1635236467281005	-1.0042631223745973	0.0	1.1880013156074325	-0.9971287357557396	0.0	1.1370958857385054	-0.9726693546771571	0.0	1.0675131092821426	-0.26589601894665793	0.0	1.0524117532215491	-0.13587020078172085	0.0	1.0582178359161756	-0.2080807785802437	0.0	0.9888635280117322	-0.32933198578410844	0.0	0.9480790452552889	-0.4547470928576042	0.0	0.8955917872009269	-0.5538053109002319	0.0	1.1610793567076876	-0.3090502963679569	0.0	1.1957277293781146	-0.43881556063471133	0.0	1.2077693707302266	-0.5458301026535557	0.0
68	2.289333333333333	1.0924539595617555	-0.5816010109336736	0.0	1.0395710632481725	-0.5867213470351433	0.0	1.0380579654065751	-0.7808726086385392	0.0	1.0779779344489977	-0.9466304370959453	0.0	1.062371467824102	-1.0097808768166248	0.0	1.0401961192610887	-1.0006577736845605	0.0	1.0969937758638628	-0.9628288997735585	0.0	1.1431317497101252	-0.5781362029777719	0.0	1.1658516883976904	-0.757487996713669	0.0	1.1530111867403208	-0.9862251518185927	0.0	1.1595912733805658	-1.0352303141727457	0.0	1.1854486507621282	-1.0298088441455522	0.0	1.141154639038346	-1.0125212662876633	0.0	1.0671537778412115	-0.27488095544136715	0.0	1.0520075962687288	-0.14328430373518836	0.0	1.05826002047664	-0.2171004483396873	0.0	0.9878579232417937	-0.3410598698099284	0.0	0.9532588406699826	-0.47224480146935516	0.0	0.903812694073651	-0.5806925491809717	0.0	1.1622069580245156	-0.3208769538055693	0.0	1.1933233387189661	-0.4569351979425944	0.0	1.2104637133067457	-0.5753670642884886	0.0
69	2.323	1.0912910182457434	-0.5941941972222226	0.0	1.038066483784574	-0.5990895491370896	0.0	1.036197287511795	-0.7992906312864936	0.0	1.080744926005008	-0.9455986519430262	0.0	1.063974761382483	-1.012162273197545	0.0	1.0420943999944334	-1.0017460939532203	0.0	1.0998580446791775	-0.956649255512352	0.0	1.1429356247868336	-0.5901384847528672	0.0	1.162020663139625	-0.7753285127745996	0.0	1.1529898006338433	-1.0144934873365228	0.0	1.1523701143812732	-1.0562899540136197	0.0	1.1796742480793583	-1.052424794514761	0.0	1.143714490923739	-1.041528342474269	0.0	1.0679867623256591	-0.2808702584974537	0.0	1.05293638816248	-0.14728893515809005	0.0	1.05966655373356	-0.22283885457858782	0.0	0.9872825951556438	-0.34896375477652514	0.0	0.9588497785930754	-0.48544586227914177	0.0	0.9128098049097971	-0.6018647282282273	0.0	1.1646462797125732	-0.3298143361367954	0.0	1.1928927885027756	-0.4717797684278553	0.0	1.2141965096291685	-0.5988343013611107	0.0
70	2.3566666666666665	1.090418562712453	-0.603335890878804	0.0	1.0367242206796474	-0.6082777026897793	0.0	1.0347872824382023	-0.8161789807089095	0.0	1.0825950110351577	-0.9417582332006393	0.0	1.0656532505498924	-1.0135970536566805	0.0	1.0437085377579385	-1.001573035105551	0.0	1.10157352485617	-0.9469762273778367	0.0	1.143317199424131	-0.5987302987142713	0.0	1.1598416988084592	-0.789094212853897	0.0	1.1519348277237247	-1.0330816997081864	0.0	1.14344308834522	-1.0682970355977064	0.0	1.1723192120907333	-1.0655224642012522	0.0	1.1446322110628073	-1.0597938637213589	0.0	1.069906945546467	-0.2834589254215045	0.0	1.0552286022402146	-0.14749222016834357	0.0	1.0623054218427392	-0.2248246639396657	0.0	0.9869935950142293	-0.35258047196154435	0.0	0.96422176253958	-0.4937380075618789	0.0	0.9218388024160865	-0.6169616390414154	0.0	1.168207487749014	-0.3352499738706627	0.0	1.1942960151166924	-0.4826625524836057	0.0	1.2184392821218086	-0.6158197339005449	0.0
71	2.390333333333333	1.0897589058990058	-0.6091232452757414	0.0	1.035344656338737	-0.6143082356260315	0.0	1.0326830953822275	-0.8300103951159341	0.0	1.083084492510558	-0.9368311129007252	0.0	1.0668733220399416	-1.0152373685104121	0.0	1.044570347411191	-1.0013826860423214	0.0	1.101700652411276	-0.9365581380890341	0.0	1.1442397591366384	-0.6042529226412215	0.0	1.1591504083217257	-0.7992867026653928	0.0	1.1504367000514115	-1.043635281915487	0.0	1.1352004519470655	-1.0738996065171476	0.0	1.165652509289086	-1.071522467209622	0.0	1.1441676265419671	-1.0695402711035396	0.0	1.0725247114044392	-0.28285632528272203	0.0	1.0585059916467456	-0.1442800220311126	0.0	1.0656840610974851	-0.22339241147529018	0.0	0.9867857997643757	-0.35240151989597024	0.0	0.9687852121957194	-0.49762820333368685	0.0	0.9300274456813332	-0.6266798653359216	0.0	1.1725342345385814	-0.33732723133846104	0.0	1.1971372704901169	-0.48955907601266585	0.0	1.2225505245369408	-0.6271475334510478	0.0
72	2.424	1.0891320290474542	-0.6123735103108243	0.0	1.0337377582354004	-0.6176752628919734	0.0	1.0286777490520846	-0.8392985281756232	0.0	1.081989255696038	-0.9331803825773223	0.0	1.066945892105172	-1.0182880828773193	0.0	1.0441105055463897	-1.0026626432812118	0.0	1.1001158060191685	-0.9288609205315442	0.0	1.145446807017743	-0.6076912047669257	0.0	1.1593766246592345	-0.8075863147286618	0.0	1.148907559772983	-1.0488702521691036	0.0	1.1292725228041534	-1.0763041009256482	0.0	1.1611009273230628	-1.0736482038513575	0.0	1.1427706688194907	-1.0739283363036578	0.0	1.0752513775235093	-0.2796952920368347	0.0	1.061944498791106	-0.1384395240932315	0.0	1.069028792506211	-0.21938964784256065	0.0	0.9863464282890182	-0.34950569743062015	0.0	0.9720705291074866	-0.4983646641440005	0.0	0.9365329936041243	-0.6324109166856839	0.0	1.17723462813788	-0.3366787159163651	0.0	1.2009449928394593	-0.49296092112424383	0.0	1.2259805677426026	-0.634311827948704	0.0
73	2.4576666666666664	1.0882587279380889	-0.614250417803484	0.0	1.0317012462916928	-0.6190724104226356	0.0	1.022057995893514	-0.8432690512379464	0.0	1.0792411346617026	-0.9337105178162233	0.0	1.0650314060462547	-1.0241092426355694	0.0	1.0415313151713608	-1.007227349482515	0.0	1.0969605350064937	-0.9277229626919358	0.0	1.1464852220827544	-0.6101608258563913	0.0	1.1598911675154737	-0.8157151716443706	0.0	1.147557732775962	-1.0514065830143737	0.0	1.125875851970164	-1.0780131591673183	0.0	1.158748671066422	-1.0746736722914179	0.0	1.1410071198577723	-1.0757062173287586	0.0	1.0774444100303626	-0.27480211397169135	0.0	1.064480373004632	-0.13079707227430162	0.0	1.0715022856406848	-0.2137783479161745	0.0	0.9852791706033678	-0.3451280809496584	0.0	0.9737484994627784	-0.49744088160435834	0.0	0.9406800917274162	-0.6357784348682313	0.0	1.1818953950993576	-0.3340717575548456	0.0	1.2053067766391723	-0.4936360840420031	0.0	1.2284870394092628	-0.6388044860974249	0.0
